# Blender v2.90.1 OBJ File: 'table.blend'
# www.blender.org
o Plane_Plane.001
v 0.000000 -11.485281 0.000000
v 17.485283 0.000000 0.000000
v -17.485283 0.000000 0.000000
v 0.000000 11.485281 0.000000
v -16.970562 8.485281 0.000000
v -8.485281 13.970562 0.000000
v 16.970562 8.485281 0.000000
v 8.485281 13.970562 0.000000
v 8.485281 -13.970562 0.000000
v 16.970562 -8.485281 0.000000
v -8.485281 -13.970562 0.000000
v -16.970562 -8.485281 0.000000
v 0.000000 -16.485281 0.000000
v 8.485281 -18.470562 0.000000
v 17.970562 -13.485281 0.000000
v -8.485281 -18.470562 0.000000
v -17.970562 -13.485281 0.000000
v 0.000000 16.485281 0.000000
v -17.970562 13.485281 0.000000
v -8.485281 18.470562 0.000000
v 17.970562 13.485281 0.000000
v 8.485281 18.470562 0.000000
vt 0.727881 0.500000
vt 0.071144 0.500000
vt 0.399513 0.000089
vt 0.000089 0.257403
vt 0.156916 0.014805
vt 0.399513 0.999911
vt 0.000089 0.742597
vt 0.798936 0.742597
vt 0.642110 0.985195
vt 0.798936 0.257403
vt 0.056658 0.332022
vt 0.042466 0.310676
vt 0.056307 0.306415
vt 0.042197 0.285044
vt 0.028356 0.289305
vt 0.036310 0.261141
vt 0.050151 0.256881
vt 0.065232 0.355098
vt 0.042817 0.336283
vt 0.055066 0.333569
vt 0.063640 0.356645
vt 0.041225 0.337830
vt 0.040874 0.312223
vt 0.054715 0.307962
vt 0.040605 0.286591
vt 0.026764 0.290851
vt 0.034718 0.262688
vt 0.048559 0.258427
vt 0.156915 0.985195
vt 0.642110 0.014805
vt 0.079073 0.350837
vt 0.077481 0.352384
vn 0.0000 0.0000 1.0000
s off
f 1/1/1 4/2/1 3/3/1
f 3/3/1 6/4/1 5/5/1
f 2/6/1 8/7/1 4/2/1
f 2/6/1 9/8/1 10/9/1
f 3/3/1 11/10/1 1/1/1
f 11/11/1 13/12/1 1/13/1
f 9/14/1 13/12/1 14/15/1
f 9/14/1 15/16/1 10/17/1
f 11/11/1 17/18/1 16/19/1
f 8/20/1 21/21/1 22/22/1
f 8/20/1 18/23/1 4/24/1
f 6/25/1 18/23/1 20/26/1
f 6/25/1 19/27/1 5/28/1
f 1/1/1 2/6/1 4/2/1
f 3/3/1 4/2/1 6/4/1
f 2/6/1 7/29/1 8/7/1
f 2/6/1 1/1/1 9/8/1
f 3/3/1 12/30/1 11/10/1
f 11/11/1 16/19/1 13/12/1
f 9/14/1 1/13/1 13/12/1
f 9/14/1 14/15/1 15/16/1
f 11/11/1 12/31/1 17/18/1
f 8/20/1 7/32/1 21/21/1
f 8/20/1 22/22/1 18/23/1
f 6/25/1 4/24/1 18/23/1
f 6/25/1 20/26/1 19/27/1
