# Blender v2.90.1 OBJ File: 'bagua.blend'
# www.blender.org
o Plane_Plane.001
v -5.879557 14.535258 1.391100
v -4.346243 14.078157 1.391100
v -4.523400 13.442336 1.391100
v -3.962912 13.963881 1.391100
v -2.429597 13.506781 1.391100
v -4.140070 13.328060 1.391100
v -5.679575 15.206084 1.391100
v -14.118860 12.163760 1.391100
v -5.822419 14.726924 1.391100
v -15.462299 11.294757 1.391100
v -2.229615 14.177608 1.391100
v -12.888915 -13.938588 1.391100
v -2.372460 13.698445 1.391100
v -5.622437 15.397750 1.391100
v -13.778668 11.644114 1.391100
v -15.912604 -11.984800 1.391100
v -2.172477 14.369271 1.391100
v -15.532701 -11.396860 1.391100
v -14.188838 -12.265209 1.391100
v -15.804061 -11.816817 1.391100
v -14.460199 -12.685168 1.391100
v -13.852872 -12.482298 1.391100
v -12.509011 -13.350646 1.391100
v -14.124232 -12.902254 1.391100
v -12.780370 -13.770605 1.391100
v -13.775142 -11.638277 1.391100
v -15.424157 -11.228877 1.391100
v -14.080295 -12.097226 1.391100
v -13.439175 -11.855365 1.391100
v -13.744328 -12.314314 1.391100
v -12.400467 -13.182664 1.391100
v -13.782999 12.381011 1.391100
v -12.439560 13.250015 1.391100
v -13.442807 11.861365 1.391100
v -15.842489 11.882512 1.391100
v -14.499050 12.751515 1.391100
v -15.570925 11.462687 1.391100
v -14.227486 12.331691 1.391100
v -14.163189 12.968767 1.391100
v -12.819750 13.837770 1.391100
v -13.891625 12.548942 1.391100
v -12.548186 13.417946 1.391100
v -15.951114 12.050443 1.391100
v -4.542372 -13.475317 1.391100
v -5.937726 -14.404285 1.391100
v -4.402039 -13.955219 1.391100
v -12.928376 14.005701 1.391100
v -4.018115 -13.842953 1.391100
v -2.482428 -13.393886 1.391100
v -4.158449 -13.363050 1.391100
v -2.290011 -14.057119 1.391100
v -5.881592 -14.596248 1.391100
v 2.468178 13.394244 1.391100
v -5.739972 -15.085597 1.391100
v 14.829384 13.237005 1.391100
v -2.426295 -13.585848 1.391100
v -3.623344 -15.185047 1.391100
v -2.232873 -14.248785 1.391100
v -3.766188 -14.705886 1.391100
v -4.006675 -15.299322 1.391100
v -4.149519 -14.820161 1.391100
v -5.682833 -15.277263 1.391100
v 15.901187 11.948117 1.391100
v 5.923475 14.404645 1.391100
v 14.557796 12.817196 1.391100
v 2.271711 14.066109 1.391100
v 3.807398 14.515175 1.391100
v 2.412045 13.586206 1.391100
v 3.947731 14.035273 1.391100
v 4.191321 14.627442 1.391100
v 5.727009 15.076509 1.391100
v 4.331655 14.147540 1.391100
v 5.867342 14.596606 1.391100
v 14.493535 13.454276 1.391100
v 2.215578 14.258071 1.391100
v 14.221948 13.034466 1.391100
v 12.878557 13.903544 1.391100
v 5.670875 15.268471 1.391100
v 12.498335 13.315810 1.391100
v 13.841725 12.446732 1.391100
v 12.769921 13.735620 1.391100
v 14.113313 12.866542 1.391100
v 14.177574 12.229461 1.391100
v 15.520965 11.360383 1.391100
v 14.449162 12.649271 1.391100
v 15.792552 11.780192 1.391100
v 13.461502 11.858997 1.391100
v 12.389699 13.147885 1.391100
v 13.733089 12.278807 1.391100
v 13.797352 11.641726 1.391100
v 14.068939 12.061537 1.391100
v 15.412330 11.192458 1.391100
v 5.923449 -14.404287 1.391100
v 12.728476 -13.809555 1.391100
v 15.833428 -11.871759 1.391100
v 15.528530 -11.418247 1.391100
v 15.955506 -12.041807 1.391100
v 2.468151 -13.393888 1.391100
v 12.505900 -13.373674 1.391100
v 12.850555 -13.979602 1.391100
v 13.749081 -11.589163 1.391100
v 15.419895 -11.250322 1.391100
v 14.076505 -12.119401 1.391100
v 13.413231 -11.806434 1.391100
v 13.740656 -12.336672 1.391100
v 12.397265 -13.205750 1.391100
v 5.726982 -15.076151 1.391100
v 5.867316 -14.596249 1.391100
v 2.271685 -14.065751 1.391100
v 2.412018 -13.585849 1.391100
v 5.670849 -15.268113 1.391100
v 2.215551 -14.257713 1.391100
vt 0.389684 0.201373
vt 0.431200 0.128487
vt 0.385778 0.198846
vt 0.444871 0.137333
vt 0.428595 0.171122
vt 0.423549 0.178938
vt 0.373090 0.364123
vt 0.400933 0.443038
vt 0.377550 0.362834
vt 0.357479 0.368636
vt 0.385331 0.447620
vt 0.361943 0.367346
vt 0.370654 0.587653
vt 0.368083 0.596549
vt 0.362252 0.633373
vt 0.388000 0.602517
vt 0.373332 0.636576
vt 0.390619 0.593514
vt 0.047104 0.366961
vt 0.074554 0.445601
vt 0.051544 0.365690
vt 0.430250 0.826136
vt 0.408974 0.784761
vt 0.425209 0.818347
vt 0.118310 0.167606
vt 0.108614 0.161307
vt 0.103575 0.169065
vt 0.065204 0.593714
vt 0.067798 0.584852
vt 0.050391 0.627872
vt 0.109764 0.832059
vt 0.105796 0.834571
vt 0.100784 0.826565
vt 0.000000 0.000000
vt 0.000000 0.000000
vt 0.000000 0.000000
vt 0.435107 0.131015
vt 0.448776 0.139860
vt 0.438366 0.177428
vt 0.433322 0.185246
vt 0.403363 0.210211
vt 0.399451 0.207690
vt 0.396477 0.444347
vt 0.380871 0.448929
vt 0.385403 0.553317
vt 0.380947 0.552014
vt 0.359533 0.584441
vt 0.356967 0.593342
vt 0.357818 0.632100
vt 0.377754 0.637850
vt 0.396519 0.556569
vt 0.400981 0.557874
vt 0.401830 0.596675
vt 0.399071 0.605879
vt 0.070110 0.446873
vt 0.411577 0.827131
vt 0.401772 0.833332
vt 0.406863 0.841334
vt 0.416622 0.834965
vt 0.436801 0.866185
vt 0.440699 0.863653
vt 0.395364 0.793558
vt 0.391486 0.796067
vt 0.415477 0.824623
vt 0.420521 0.832440
vt 0.405088 0.787272
vt 0.450439 0.857326
vt 0.454334 0.854796
vt 0.113272 0.175363
vt 0.093119 0.206397
vt 0.117151 0.177882
vt 0.097000 0.208913
vt 0.126849 0.184180
vt 0.122188 0.170125
vt 0.131886 0.176422
vt 0.079536 0.197580
vt 0.083414 0.200103
vt 0.124896 0.127752
vt 0.142339 0.139107
vt 0.138464 0.136584
vt 0.128773 0.130277
vt 0.076281 0.596957
vt 0.065899 0.632379
vt 0.070329 0.633667
vt 0.093694 0.553962
vt 0.078877 0.588098
vt 0.089265 0.552655
vt 0.078187 0.549388
vt 0.073754 0.548080
vt 0.054826 0.629161
vt 0.114655 0.817888
vt 0.094700 0.786371
vt 0.118606 0.815395
vt 0.098640 0.783879
vt 0.128478 0.809150
vt 0.133487 0.817063
vt 0.080912 0.795087
vt 0.084838 0.792611
vt 0.104756 0.824087
vt 0.123607 0.823311
vt 0.119648 0.825811
vt 0.143654 0.855040
vt 0.139690 0.857556
vt 0.095860 0.840955
vt 0.090761 0.832617
vt 0.129776 0.863849
vt 0.125806 0.866367
vt 0.000000 0.000000
vt 0.000000 0.000000
vt 0.000000 0.000000
vt 0.000000 0.000000
vt 0.000000 0.000000
vn -0.0000 0.0000 1.0000
s off
f 100/1/1 95/2/1 94/3/1
f 96/4/1 103/5/1 105/6/1
f 110/7/1 93/8/1 98/9/1
f 112/10/1 107/11/1 109/12/1
f 61/13/1 59/14/1 51/15/1
f 46/16/1 52/17/1 48/18/1
f 17/19/1 7/20/1 11/21/1
f 21/22/1 12/23/1 24/24/1
f 41/25/1 39/26/1 36/27/1
f 67/28/1 70/29/1 75/30/1
f 85/31/1 65/32/1 76/33/1
f 9/34/1 2/35/1 4/36/1
f 100/1/1 97/37/1 95/2/1
f 96/4/1 102/38/1 103/5/1
f 103/5/1 101/39/1 104/40/1
f 105/6/1 106/41/1 99/42/1
f 103/5/1 104/40/1 105/6/1
f 99/42/1 96/4/1 105/6/1
f 110/7/1 108/43/1 93/8/1
f 112/10/1 111/44/1 107/11/1
f 51/15/1 54/45/1 61/13/1
f 54/45/1 62/46/1 61/13/1
f 61/13/1 60/47/1 59/14/1
f 60/47/1 57/48/1 59/14/1
f 59/14/1 58/49/1 51/15/1
f 46/16/1 45/50/1 52/17/1
f 52/17/1 56/51/1 48/18/1
f 56/51/1 49/52/1 48/18/1
f 48/18/1 50/53/1 46/16/1
f 50/53/1 44/54/1 46/16/1
f 17/19/1 14/55/1 7/20/1
f 30/56/1 29/57/1 26/58/1
f 28/59/1 27/60/1 18/61/1
f 30/56/1 26/58/1 28/59/1
f 23/62/1 31/63/1 30/56/1
f 22/64/1 23/62/1 30/56/1
f 30/56/1 28/59/1 19/65/1
f 28/59/1 18/61/1 19/65/1
f 24/24/1 22/64/1 21/22/1
f 22/64/1 30/56/1 19/65/1
f 21/22/1 22/64/1 19/65/1
f 12/23/1 25/66/1 24/24/1
f 20/67/1 16/68/1 21/22/1
f 16/68/1 12/23/1 21/22/1
f 38/69/1 37/70/1 8/71/1
f 37/70/1 10/72/1 8/71/1
f 8/71/1 15/73/1 32/74/1
f 15/73/1 34/75/1 32/74/1
f 43/76/1 35/77/1 36/27/1
f 38/69/1 8/71/1 32/74/1
f 47/78/1 43/76/1 36/27/1
f 36/27/1 38/69/1 41/25/1
f 32/74/1 33/79/1 42/80/1
f 38/69/1 32/74/1 41/25/1
f 39/26/1 40/81/1 47/78/1
f 32/74/1 42/80/1 41/25/1
f 39/26/1 47/78/1 36/27/1
f 69/82/1 68/83/1 53/84/1
f 53/84/1 64/85/1 72/86/1
f 64/85/1 73/87/1 72/86/1
f 69/82/1 53/84/1 72/86/1
f 70/29/1 71/88/1 78/89/1
f 69/82/1 72/86/1 67/28/1
f 72/86/1 70/29/1 67/28/1
f 75/30/1 66/90/1 67/28/1
f 70/29/1 78/89/1 75/30/1
f 80/91/1 79/92/1 89/93/1
f 79/92/1 88/94/1 89/93/1
f 89/93/1 87/95/1 90/96/1
f 77/97/1 81/98/1 82/99/1
f 80/91/1 89/93/1 91/100/1
f 89/93/1 90/96/1 91/100/1
f 76/33/1 77/97/1 82/99/1
f 82/99/1 80/91/1 83/101/1
f 91/100/1 92/102/1 84/103/1
f 80/91/1 91/100/1 83/101/1
f 55/104/1 74/105/1 76/33/1
f 76/33/1 82/99/1 85/31/1
f 85/31/1 82/99/1 83/101/1
f 91/100/1 84/103/1 83/101/1
f 85/31/1 86/106/1 63/107/1
f 65/32/1 55/104/1 76/33/1
f 85/31/1 63/107/1 65/32/1
f 9/34/1 1/108/1 2/35/1
f 2/35/1 3/109/1 4/36/1
f 3/109/1 6/110/1 4/36/1
f 4/36/1 5/111/1 13/112/1
f 13/112/1 9/34/1 4/36/1
